<?xml version="1.0" encoding="UTF-8"?><!DOCTYPE svg PUBLIC "-//W3C//DTD SVG 1.1//EN" "http://www.w3.org/Graphics/SVG/1.1/DTD/svg11.dtd"><svg xmlns="http://www.w3.org/2000/svg" xmlns:xlink="http://www.w3.org/1999/xlink" version="1.1" width="24" height="24" viewBox="0 0 24 24"><path d="M19 4L19 7L17 7C16.45 7 16 7.45 16 8L16 10L19 10L19 13L16 13L16 20L13 20L13 13L11 13L11 10L13 10L13 7.5C13 5.56 14.57 4 16.5 4M20 2L4 2C2.9 2 2 2.89 2 4L2 20C2 21.1 2.9 22 4 22L20 22C21.1 22 22 21.1 22 20L22 4C22 2.89 21.1 2 20 2Z" /></svg>